[Header]
FileType HTR
DataType HTRS
FileVersion 1
NumSegments 22
NumFrames 4
DataFrameRate 24
EulerRotationOrder ZYX
CalibrationUnits mm
RotationUnits Degrees
GlobalAxisofGravity Y
BoneLengthAxis Y
ScaleFactor 1.0
[SegmentNames&Hierarchy]
reference	GLOBAL
Hips	reference
Spine	Hips
Spine1	Spine
Neck	Spine1
Head	Neck
LeftShoulder	Spine1
LeftArm	LeftShoulder
LeftForeArm	LeftArm
LeftHand	LeftForeArm
RightShoulder	Spine1
RightArm	RightShoulder
RightForeArm	RightArm
RightHand	RightForeArm
LeftUpLeg	Hips
LeftLeg	LeftUpLeg
LeftFoot	LeftLeg
LeftToeBase	LeftFoot
RightUpLeg	Hips
RightLeg	RightUpLeg
RightFoot	RightLeg
RightToeBase	RightFoot
[BasePosition]
reference	0	0	0	0	0	0	1
Hips	0	0	0	0	0	0	1
Spine	0	0	0	0	-0	90	1
Spine1	0	0	0	0	0	0	1
Neck	0	0	0	-7.352430803	-7.352430803	90	1
Head	0	0	0	0	-0	90	1
LeftShoulder	0	0	0	0	0	0	1
LeftArm	0	0	0	0	0	0	1
LeftForeArm	0	0	0	0	0	0	1
LeftHand	0	0	0	0	0	0	1
RightShoulder	0	0	0	0	-0	180	1
RightArm	0	0	0	0	-0	180	1
RightForeArm	0	0	0	0	-0	180	1
RightHand	0	0	0	0	-0	180	1
LeftUpLeg	0	0	0	0	-0	-90	1
LeftLeg	0	0	0	0	-0	-90	1
LeftFoot	0	0	0	66.57150701	-66.57150701	-90	1
LeftToeBase	0	0	0	0	-90	0	1
RightUpLeg	0	0	0	0	-0	-90	1
RightLeg	0	0	0	0	-0	-90	1
RightFoot	0	0	0	66.57150701	-66.57150701	-90	1
RightToeBase	0	0	0	0	-90	0	1
[reference]
29	0	0	0	0	-0	0	1.0
30	0	0	0	0	-0	0	1.0
31	0	0	0	0	-0	0	1.0
32	0	0	0	0	-0	0	1.0
[Hips]
29	1.349072933	8.842144966	-0.35832569	-171.0278778	-95.87208557	176.8054352	1.0
30	1.500247002	8.823749542	-0.5183666348	-165.2868042	-95.73834991	170.1084137	1.0
31	1.681339979	8.804707527	-0.6895799637	-162.7833862	-96.0941391	166.7605591	1.0
32	1.900359511	8.783826828	-0.8654636741	-162.569931	-97.44728851	166.0984802	1.0
[Spine]
29	0	0.7478299737	0	-13.33225441	4.803150177	-89.74649048	1.0
30	0	0.7478299737	0	-12.29364681	6.050455093	-88.83193207	1.0
31	0	0.7478299737	0	-10.99927711	6.508353233	-88.32525635	1.0
32	0	0.7478299737	0	-9.398862839	6.09951973	-87.78577423	1.0
[Spine1]
29	0	2.049309969	0	9.063559532	1.660906434	-0.8166269064	1.0
30	0	2.049309969	0	8.700275421	2.049177647	-0.8959437013	1.0
31	0	2.049309969	0	7.776019573	2.169191599	-0.7243179679	1.0
32	0	2.049309969	0	6.630282879	2.016002178	-0.5175104141	1.0
[Neck]
29	0	2.231709957	0	-9.513785362	-4.96418047	-90.06518555	1.0
30	0	2.231709957	0	-8.859012604	-5.152802944	-90.71508026	1.0
31	0	2.231709957	0	-8.180374146	-4.802671432	-91.46458435	1.0
32	0	2.231709957	0	-8.512945175	-4.168872833	-92.17984772	1.0
[Head]
29	0	1.413589954	0.1823999882	-5.043140888	-13.23344803	-83.78057098	1.0
30	0	1.413589954	0.1823999882	-5.138841629	-13.38752747	-83.96302032	1.0
31	0	1.413589954	0.1823999882	-4.585112095	-13.02752876	-84.32543945	1.0
32	0	1.413589954	0.1823999882	-2.841701031	-12.43446159	-84.92485046	1.0
[LeftShoulder]
29	0.3649300039	1.825889945	-0.04271000251	-6.061130524	-8.172094345	8.003277779	1.0
30	0.3649300039	1.825889945	-0.04271000251	-5.105701923	-8.298046112	8.219163895	1.0
31	0.3649300039	1.825889945	-0.04271000251	-3.580505848	-8.588821411	8.369200706	1.0
32	0.3649300039	1.825889945	-0.04271000251	-2.444918633	-8.354743004	8.71389389	1.0
[LeftArm]
29	1.24003005	0	0	7.508979797	27.71793556	-70.51191711	1.0
30	1.24003005	0	0	4.81545496	29.10753822	-68.77874756	1.0
31	1.24003005	0	0	1.801207423	29.8685894	-67.95487976	1.0
32	1.24003005	0	0	-2.767305374	29.45761108	-68.07872009	1.0
[LeftForeArm]
29	2.847419977	0	0	8.534557343	7.123769283	-15.60057068	1.0
30	2.847419977	0	0	9.179059982	8.312374115	-15.53457832	1.0
31	2.847419977	0	0	8.101408005	8.268597603	-15.72762108	1.0
32	2.847419977	0	0	6.90557003	8.018943787	-15.44571877	1.0
[LeftHand]
29	2.258270025	0	0	9.429885864	5.727235317	-1.621387005	1.0
30	2.258270025	0	0	10.18152142	6.866253853	-2.213178396	1.0
31	2.258270025	0	0	9.131006241	6.489192963	-2.00878334	1.0
32	2.258270025	0	0	7.896010399	5.133167744	-2.194381475	1.0
[RightShoulder]
29	-0.3646599948	1.825889945	-0.04271000251	-10.24298954	9.840256691	-183.9021301	1.0
30	-0.3646599948	1.825889945	-0.04271000251	-10.54130173	10.52930069	-184.2427063	1.0
31	-0.3646599948	1.825889945	-0.04271000251	-10.2256546	11.05477333	-184.3660126	1.0
32	-0.3646599948	1.825889945	-0.04271000251	-9.881551743	11.29100227	-184.4224548	1.0
[RightArm]
29	-1.24003005	0	0	74.12860107	17.44248962	-104.8605118	1.0
30	-1.24003005	0	0	75.73445129	19.72900581	-104.2549744	1.0
31	-1.24003005	0	0	76.73532867	21.80022049	-103.6049652	1.0
32	-1.24003005	0	0	76.92346954	22.71381187	-102.815361	1.0
[RightForeArm]
29	-2.847419977	0	0	1.332702875	69.47089386	165.2124023	1.0
30	-2.847419977	0	0	-3.842556477	71.43734741	157.9482422	1.0
31	-2.847419977	0	0	-7.300546646	71.96762085	153.8838806	1.0
32	-2.847419977	0	0	-8.142794609	71.06394196	152.6667175	1.0
[RightHand]
29	-2.258270025	0	0	10.37497711	12.45717812	168.6824493	1.0
30	-2.258270025	0	0	11.02629662	11.88795662	169.6966858	1.0
31	-2.258270025	0	0	10.89548302	11.44688702	170.8355713	1.0
32	-2.258270025	0	0	10.80913639	11.15023804	172.3339996	1.0
[LeftUpLeg]
29	0.9119900465	0	0	-7.214934349	-7.926763058	95.21622467	1.0
30	0.9119900465	0	0	-7.713551044	-7.854288578	96.70455933	1.0
31	0.9119900465	0	0	-9.601758003	-9.871853828	98.69091797	1.0
32	0.9119900465	0	0	-14.64670372	-13.14361668	102.0659561	1.0
[LeftLeg]
29	0	-4.371409893	0	-2.116789818	-2.743528605	90.12530518	1.0
30	0	-4.371409893	0	-1.376889944	-1.751578212	90.54072571	1.0
31	0	-4.371409893	0	1.217565298	1.567374825	90.28249359	1.0
32	0	-4.371409893	0	8.827155113	5.01494503	88.72750092	1.0
[LeftFoot]
29	0	-3.918009996	0	-100.1427231	104.6449051	-70.81585693	1.0
30	0	-3.918009996	0	-101.1031189	102.4452515	-73.370224	1.0
31	0	-3.918009996	0	-104.220314	99.47822571	-76.52178955	1.0
32	0	-3.918009996	0	-118.6464615	96.33467102	-86.390625	1.0
[LeftToeBase]
29	0	-0.5927900076	1.367989898	0	0	0	1.0
30	0	-0.5927900076	1.367989898	0	0	0	1.0
31	0	-0.5927900076	1.367989898	0	0	0	1.0
32	0	-0.5927900076	1.367989898	0	0	0	1.0
[RightUpLeg]
29	-0.9119900465	0	0	4.804553032	3.904237509	90.36440277	1.0
30	-0.9119900465	0	0	5.62709856	5.212205887	91.58580017	1.0
31	-0.9119900465	0	0	4.40966177	3.464138985	92.84149933	1.0
32	-0.9119900465	0	0	0.99365592	3.851597309	94.96012115	1.0
[RightLeg]
29	0	-4.371409893	0	6.947711945	5.744002342	87.62422943	1.0
30	0	-4.371409893	0	4.814225674	3.67813921	88.9285965	1.0
31	0	-4.371409893	0	6.305103302	5.579910755	89.22599792	1.0
32	0	-4.371409893	0	11.55398846	6.103018284	88.98751068	1.0
[RightFoot]
29	0	-3.918009996	0	50.30792999	55.68640137	87.26664734	1.0
30	0	-3.918009996	0	48.54118729	57.65834427	84.05131531	1.0
31	0	-3.918009996	0	45.96196365	58.941185	82.12345886	1.0
32	0	-3.918009996	0	38.8355484	59.46750641	77.4695816	1.0
[RightToeBase]
29	0	-0.5927900076	1.367989898	0	0	0	1.0
30	0	-0.5927900076	1.367989898	0	0	0	1.0
31	0	-0.5927900076	1.367989898	0	0	0	1.0
32	0	-0.5927900076	1.367989898	0	0	0	1.0
[EndOfFile]
